<svg id="Layer_1" data-name="Layer 1" xmlns="http://www.w3.org/2000/svg" viewBox="0 0 198.6 31.59"><defs><style>.cls-1{fill:#f15d51;}</style></defs><title>people-bench-logo</title><rect class="cls-1" y="29.61" width="10.63" height="1.98"/><path class="cls-1" d="M2.05,18.36v4.06H0V9.16H6a4.31,4.31,0,0,1,4.63,4.63A4.44,4.44,0,0,1,6,18.36Zm0-7.33v5.49H5.62A2.69,2.69,0,0,0,8.5,13.81,2.65,2.65,0,0,0,5.62,11Z"/><polygon class="cls-1" points="27.6 22.42 17.77 22.42 17.77 9.16 27.4 9.16 27.4 11.03 19.82 11.03 19.82 14.68 26.37 14.68 26.37 16.55 19.82 16.55 19.82 20.56 27.6 20.56 27.6 22.42"/><path class="cls-1" d="M41.66,9a6.75,6.75,0,0,1,7,6.89c0,4-3,6.76-7,6.76a6.63,6.63,0,0,1-6.95-6.76A6.73,6.73,0,0,1,41.66,9m0,11.71a4.6,4.6,0,0,0,4.88-4.84,4.83,4.83,0,1,0-9.66,0,4.57,4.57,0,0,0,4.78,4.84"/><path class="cls-1" d="M58.94,18.36v4.06h-2V9.16h6a4.31,4.31,0,0,1,4.63,4.63,4.44,4.44,0,0,1-4.63,4.57Zm0-7.33v5.49h3.58a2.68,2.68,0,0,0,2.87-2.71A2.65,2.65,0,0,0,62.52,11Z"/><polygon class="cls-1" points="84.77 22.42 75.16 22.42 75.16 9.16 77.22 9.16 77.22 20.56 84.77 20.56 84.77 22.42"/><polygon class="cls-1" points="101.94 22.42 92.11 22.42 92.11 9.16 101.74 9.16 101.74 11.03 94.16 11.03 94.16 14.68 100.72 14.68 100.72 16.55 94.16 16.55 94.16 20.56 101.94 20.56 101.94 22.42"/><path class="cls-1" d="M109.93,22.42V9.16h6.63c2.14,0,4,1.26,4,3.46a3.26,3.26,0,0,1-1.78,3,3.25,3.25,0,0,1,2.45,3.17c0,2.28-1.8,3.62-4,3.62Zm3.21-10.57v2.71h2.79a1.24,1.24,0,0,0,1.3-1.35,1.3,1.3,0,0,0-1.39-1.36Zm0,5.17v2.73h3.21a1.32,1.32,0,0,0,1.4-1.35,1.3,1.3,0,0,0-1.4-1.38Z"/><polygon class="cls-1" points="139.02 22.42 128.92 22.42 128.92 9.16 138.93 9.16 138.93 11.87 132.13 11.87 132.13 14.33 138.16 14.33 138.16 17.02 132.13 17.02 132.13 19.73 139.02 19.73 139.02 22.42"/><polygon class="cls-1" points="149.91 22.42 146.69 22.42 146.69 9.16 149.43 9.16 156.22 17.25 156.22 9.16 159.43 9.16 159.43 22.42 156.64 22.42 149.91 14.42 149.91 22.42"/><path class="cls-1" d="M174.5,9a10.29,10.29,0,0,1,4.18.89l-.2,2.8a8.15,8.15,0,0,0-3.51-.77c-2.48,0-4.87,1.08-4.87,3.87,0,2.48,1.92,4,4.52,4a7.17,7.17,0,0,0,3.87-1l.44,2.73a10.59,10.59,0,0,1-4.81,1.12c-4,0-7.31-2.66-7.31-6.82,0-4.54,3.73-6.83,7.69-6.83"/><polygon class="cls-1" points="189.64 22.42 186.43 22.42 186.43 9.16 189.64 9.16 189.64 14.31 195.39 14.31 195.39 9.16 198.6 9.16 198.6 22.42 195.39 22.42 195.39 17 189.64 17 189.64 22.42"/><rect class="cls-1" x="186.43" width="12.17" height="1.98"/></svg>